<?xml version="1.0" standalone="no"?><svg xmlns="http://www.w3.org/2000/svg" viewBox="0 0 1440 320"><path fill="#F9E9C1" fill-opacity="1" d="M0,64L40,74.7C80,85,160,107,240,122.7C320,139,400,149,480,138.7C560,128,640,96,720,85.3C800,75,880,85,960,106.7C1040,128,1120,160,1200,176C1280,192,1360,192,1400,192L1440,192L1440,320L1400,320C1360,320,1280,320,1200,320C1120,320,1040,320,960,320C880,320,800,320,720,320C640,320,560,320,480,320C400,320,320,320,240,320C160,320,80,320,40,320L0,320Z"></path></svg>